<svg fill="none" height="28" viewBox="0 0 100 28" width="100" xmlns="http://www.w3.org/2000/svg"><g fill="#f9d7d1"><path d="m3.31958 12.3647v-1.4798h-1.45935v-1.4798h-1.459351v-4.4394h1.459351v-1.4798h1.45935v-1.4798h11.69372v1.4798h-2.9187v1.4798h1.4594v4.4394h-1.4594v1.4798h-1.4593v1.4798zm10.23442 11.8576v-2.9596h-1.4594v-1.4798h-8.77502v-1.4798h-1.45935v-1.4798h-1.459351v-2.9596h1.459351v-1.4798h1.45935v2.9596h1.45935v1.4798h8.77507v1.4798h1.4593v1.4798h1.4594v2.9596h-1.4594v1.4798zm-10.23442 2.9596v-1.4798h-1.45935v-1.4798h-1.459351v-2.9596h1.459351v-1.4798h1.45935v4.4586h1.45935v1.4798h7.31567v1.4798h-8.77502zm5.85636-16.297v-1.4798h1.45936v-4.4394h-1.45936v-1.4798h-4.39701v1.4798h-1.45935v4.4394h1.45935v1.4798zm2.91866 14.8172v-1.4798h1.4594v1.4798z"/><path d="m20.8698 18.2839v-1.4798h-1.4594v-1.4798h-1.4593v-2.9596h-1.4594v-4.4394h1.4594v-2.9596h1.4593v1.4798h8.7751v-1.4798h-1.4594v-1.4798h-5.8374v-1.4798h7.3157v1.4798h1.4594v1.4798h1.4593v2.9596h-11.6937v4.4394h1.4593v2.9596h1.4594v1.4798h5.8374v1.4798zm-1.4594-13.33742v-1.4798h1.4594v1.4798zm8.7751 11.85762v-1.4798h1.4593v1.4798zm1.4593-1.4798v-1.4798h1.4594v1.4798z"/><path d="m33.3027 18.2839v-1.4798h1.4594v-11.85762h-1.4594v-1.4798h1.4594v-1.4798h1.4593v-1.4798h1.4594v2.9596h1.4593v1.4798h-1.4593v11.85762h1.4593v1.4798zm10.9546 0v-1.4798h1.4594v-11.85762h-1.4594v-1.4798h-5.1172v-1.4798h6.5766v1.4798h1.4594v1.4798h1.4593v11.85762h1.4593v1.4798h-5.8563z"/><path d="m53.7714 18.2839v-1.4798h-1.4594v-3.7091h1.4594v2.2293h1.4593v1.4798h4.397v-1.4798h1.4594v-2.9596h-1.4594v-1.4798h-2.9187v-1.47981h-2.9187v-1.4798h-1.4593v-2.9596h1.4593v-1.47979h1.4594v2.95959h1.4593v1.4798h2.9187v1.4798h2.9187v1.47981h1.4594v4.4586h-1.4594v1.4798h-1.4593v1.4798h-7.3157zm8.0548-11.85762v-1.4798h-1.4593v-1.4798h-5.1172v-1.4798h6.5765v1.4798h1.4594v2.9596z"/><path d="m71.3218 21.2435v-6.6687h-1.4594v-3.7091h-1.4593v-3.70914h-1.4594v-3.70911h-2.1795v-1.4798h7.2967v1.4798h-2.1985v3.70911h1.4594v3.70914h1.4593v3.7091h1.4594v3.7091h-1.4594v2.9596zm-5.8374 5.9384v-2.9596h4.378v1.4798h-1.4593v1.4798h-2.8998zm4.378-2.9596v-2.9596h1.4594v2.9596zm4.3781-9.6283v-3.7091h1.4593v3.7091zm2.9187-7.41822v-3.70911h-2.1796v-1.4798h5.8374v1.4798h-2.1985v3.70911zm-1.4404 3.70912v-3.70912h1.4593v3.70912z"/><path d="m82.2949 18.2839v-1.4798h1.4594v-11.85762h-1.4594v-1.4798h1.4594v-1.4798h1.4593v-1.4798h1.4594v2.9596h1.4593v1.4798h-1.4593v11.85762h1.4593v1.4798zm10.9546 0v-1.4798h1.4594v-11.85762h-1.4594v-1.4798h-5.1172v-1.4798h6.5766v1.4798h1.4593v1.4798h1.4594v11.85762h1.4593v1.4798h-5.8563z"/></g></svg>